# File created by Blade
# Date/Time:  Wed Jan 21 17:16:23 2015
# Frame Rate: 120.000 fps
#------------------------------------------------------
:FULLY-SPECIFIED
:DEGREES
2156
root 21.354775 5.605321 -11.576182 -230.723584 -26.933324 -190.523056
Spine 65.224690 11.148403 -5.441054
Head 22.980044 -8.055592 3.217170
LeftShoulder -3.808582 -9.988165 15.917285
LeftArm -25.600802 38.616450 -94.265867
LeftForeArm 5.646575 -0.000000 42.194668
LeftHand -11.222503 -0.000000 11.790757
LeftHandThumb1 -26.253704 0.000000 33.147579
RightShoulder 1.205039 -18.501449 -12.883682
RightArm 21.190965 -54.046777 61.556651
RightForeArm -29.441033 -0.000000 32.675698
RightHand -9.260597 -0.000000 -13.725325
RightHandThumb1 -24.326973 -0.000000 -32.862282
LeftUpLeg -82.792568 12.538585 -12.506751
LeftLeg 146.240779 -0.000000 -0.000000
LeftFoot -26.632057 28.701149 -8.297380
LeftToeBase 19.223592 -0.000000 -0.000000
RightUpLeg -91.612131 -0.269748 13.228527
RightLeg 119.418926 -0.000000 -0.000000
RightFoot -0.508643 -26.529271 -11.770494
RightToeBase 0.721161 -0.000000 -0.000000
2157
root 21.358231 5.700777 -11.554827 -230.878217 -26.894286 -190.035923
Spine 65.366064 10.730873 -5.082660
Head 23.028580 -8.312550 3.369943
LeftShoulder -3.752794 -10.127257 15.818199
LeftArm -24.882197 38.619488 -94.449391
LeftForeArm 5.526883 -0.000000 40.556201
LeftHand -10.832039 -0.000000 11.903219
LeftHandThumb1 -26.253704 0.000000 33.147579
RightShoulder 1.257429 -18.194902 -12.460890
RightArm 20.866330 -53.740578 61.691663
RightForeArm -29.657354 -0.000000 31.954458
RightHand -9.151027 -0.000000 -13.945902
RightHandThumb1 -24.326973 -0.000000 -32.862282
LeftUpLeg -82.431011 12.339026 -12.163618
LeftLeg 146.110322 -0.000000 -0.000000
LeftFoot -26.990620 28.541148 -8.626361
LeftToeBase 18.973317 -0.000000 -0.000000
RightUpLeg -91.648010 0.090991 12.284153
RightLeg 120.482505 -0.000000 -0.000000
RightFoot -0.934871 -26.566258 -11.936853
RightToeBase 0.648547 -0.000000 -0.000000
2158
root 21.363908 5.803777 -11.524891 -230.985664 -26.940810 -189.565108
Spine 65.500914 10.322364 -4.788619
Head 23.088202 -8.481882 3.663202
LeftShoulder -3.538633 -10.231446 15.659115
LeftArm -24.090794 38.392274 -94.487126
LeftForeArm 5.490693 -0.000000 38.890141
LeftHand -10.393719 -0.000000 12.009417
LeftHandThumb1 -26.253704 0.000000 33.147579
RightShoulder 1.191085 -18.416680 -11.906809
RightArm 21.753889 -53.416071 60.732673
RightForeArm -29.886834 0.000000 31.082443
RightHand -8.933831 -0.000000 -13.667433
RightHandThumb1 -24.326973 -0.000000 -32.862282
LeftUpLeg -82.048373 12.094681 -11.938895
LeftLeg 145.907526 -0.000000 -0.000000
LeftFoot -27.238857 28.514665 -8.673579
LeftToeBase 18.664730 -0.000000 -0.000000
RightUpLeg -91.702966 0.378377 11.226847
RightLeg 121.570693 -0.000000 -0.000000
RightFoot -1.326204 -26.640376 -12.328185
RightToeBase 0.656904 -0.000000 -0.000000
2159
root 21.389398 5.921246 -11.481738 -231.327970 -26.751955 -189.002202
Spine 66.000225 9.902141 -4.198274
Head 22.858434 -8.605816 3.839139
LeftShoulder -3.369949 -10.487435 15.459142
LeftArm -23.277823 38.207341 -94.612978
LeftForeArm 5.515429 -0.000000 37.077713
LeftHand -9.797796 -0.000000 12.233872
LeftHandThumb1 -26.253704 0.000000 33.147579
RightShoulder 1.272352 -18.090188 -11.549454
RightArm 21.815489 -53.160301 60.511886
RightForeArm -29.881221 -0.000000 30.286974
RightHand -8.888839 -0.000000 -14.074404
RightHandThumb1 -24.326973 -0.000000 -32.862282
LeftUpLeg -81.438195 12.023790 -11.401026
LeftLeg 145.677357 -0.000000 -0.000000
LeftFoot -27.628746 28.384468 -8.751086
LeftToeBase 18.706524 -0.000000 -0.000000
RightUpLeg -91.378371 0.679868 10.392296
RightLeg 122.500313 -0.000000 -0.000000
RightFoot -1.686617 -26.963441 -12.514524
RightToeBase 0.346545 -0.000000 -0.000000
2160
root 21.393646 6.023855 -11.458860 -231.576673 -26.623415 -188.501845
Spine 66.310795 9.467351 -3.701187
Head 22.726400 -8.713153 3.978346
LeftShoulder -3.369903 -10.380206 15.259567
LeftArm -22.086484 38.330426 -94.545434
LeftForeArm 5.269087 -0.000000 35.282130
LeftHand -9.441667 0.000000 12.474240
LeftHandThumb1 -26.253704 0.000000 33.147579
RightShoulder 1.326757 -17.918776 -11.264104
RightArm 21.992645 -52.927212 60.286207
RightForeArm -30.002395 -0.000000 29.472171
RightHand -8.945688 -0.000000 -14.158537
RightHandThumb1 -24.326973 -0.000000 -32.862282
LeftUpLeg -81.006532 11.910909 -11.031187
LeftLeg 145.545815 -0.000000 -0.000000
LeftFoot -27.995086 28.268351 -8.985547
LeftToeBase 18.626597 -0.000000 -0.000000
RightUpLeg -91.242018 0.986152 9.450097
RightLeg 123.572579 -0.000000 -0.000000
RightFoot -2.042067 -27.289065 -12.613338
RightToeBase 0.051712 -0.000000 -0.000000
2161
root 21.409433 6.128024 -11.431482 -231.741297 -26.481608 -187.962021
Spine 66.534955 9.034843 -3.223652
Head 22.626618 -8.755017 4.231897
LeftShoulder -3.227679 -10.519444 15.007017
LeftArm -21.208153 38.048401 -94.501488
LeftForeArm 5.407989 0.000000 33.585068
LeftHand -9.110288 0.000000 12.357548
LeftHandThumb1 -26.253704 0.000000 33.147579
RightShoulder 1.406090 -17.875101 -10.855833
RightArm 22.342296 -52.574669 59.853949
RightForeArm -30.139848 0.000000 28.641405
RightHand -8.928867 0.000000 -14.252001
RightHandThumb1 -24.326973 -0.000000 -32.862282
LeftUpLeg -80.637983 11.797848 -10.581580
LeftLeg 145.391347 -0.000000 -0.000000
LeftFoot -28.151139 28.284611 -8.921154
LeftToeBase 18.131433 -0.000000 -0.000000
RightUpLeg -91.139178 1.261634 8.541652
RightLeg 124.612479 -0.000000 -0.000000
RightFoot -2.410625 -27.729783 -12.791269
RightToeBase 0.248892 -0.000000 -0.000000
2162
root 21.410043 6.239937 -11.397131 -231.988827 -26.517665 -187.398084
Spine 66.859490 8.466422 -2.886937
Head 22.461939 -8.701786 4.540492
LeftShoulder -3.066273 -10.660698 14.754751
LeftArm -20.349400 37.805763 -94.466529
LeftForeArm 5.361141 -0.000000 31.948519
LeftHand -8.758348 -0.000000 12.316531
LeftHandThumb1 -26.253704 0.000000 33.147579
RightShoulder 1.483090 -17.755013 -10.493789
RightArm 22.673610 -52.248707 59.507578
RightForeArm -30.236417 -0.000000 27.750572
RightHand -8.972143 -0.000000 -14.397813
RightHandThumb1 -24.326973 -0.000000 -32.862282
LeftUpLeg -80.167383 11.515945 -10.330016
LeftLeg 145.163899 -0.000000 -0.000000
LeftFoot -28.555048 28.304338 -9.114077
LeftToeBase 18.354919 -0.000000 -0.000000
RightUpLeg -90.971847 1.317209 7.427850
RightLeg 125.718188 -0.000000 -0.000000
RightFoot -2.697082 -28.113860 -12.837085
RightToeBase -0.051879 -0.000000 0.000000
2163
root 21.419275 6.348724 -11.364911 -232.132081 -26.514901 -186.808754
Spine 67.063771 7.961343 -2.468914
Head 22.339563 -8.814729 4.894612
LeftShoulder -2.878273 -10.714226 14.429087
LeftArm -19.300591 37.578494 -94.251896
LeftForeArm 5.407201 -0.000000 30.271282
LeftHand -8.496134 -0.000000 12.248684
LeftHandThumb1 -26.253704 0.000000 33.147579
RightShoulder 1.451841 -17.726828 -10.019279
RightArm 23.169902 -51.889545 59.063207
RightForeArm -30.600208 -0.000000 26.599180
RightHand -9.055329 0.000000 -14.742170
RightHandThumb1 -24.326973 -0.000000 -32.862282
LeftUpLeg -79.809399 11.249915 -10.007626
LeftLeg 144.989158 -0.000000 -0.000000
LeftFoot -28.804768 28.286017 -9.021674
LeftToeBase 18.020298 -0.000000 -0.000000
RightUpLeg -90.842679 1.388041 6.328921
RightLeg 126.809624 -0.000000 -0.000000
RightFoot -3.083427 -28.452766 -13.037190
RightToeBase 0.452232 -0.000000 -0.000000
2164
root 21.428740 6.449188 -11.342143 -232.270965 -26.423983 -186.264624
Spine 67.253524 7.505737 -2.073831
Head 22.188706 -8.723499 5.283082
LeftShoulder -2.731429 -10.695462 14.115877
LeftArm -18.283509 37.421951 -94.057911
LeftForeArm 5.342745 -0.000000 28.697908
LeftHand -8.300786 0.000000 12.343379
LeftHandThumb1 -26.253704 0.000000 33.147579
RightShoulder 1.476203 -17.658467 -9.638540
RightArm 23.393141 -51.347939 58.907740
RightForeArm -30.843818 -0.000000 25.707474
RightHand -9.060670 -0.000000 -14.520395
RightHandThumb1 -24.326973 -0.000000 -32.862282
LeftUpLeg -79.510483 11.087740 -9.602698
LeftLeg 144.854630 -0.000000 -0.000000
LeftFoot -28.982889 28.346349 -9.033017
LeftToeBase 17.314507 -0.000000 -0.000000
RightUpLeg -90.703996 1.539756 5.149861
RightLeg 127.976665 -0.000000 -0.000000
RightFoot -3.312006 -28.465745 -13.111756
RightToeBase 0.076416 -0.000000 -0.000000
2165
root 21.438487 6.549522 -11.316674 -232.379344 -26.361646 -185.725260
Spine 67.419874 7.031757 -1.753552
Head 22.030384 -8.575709 5.706440
LeftShoulder -2.603405 -10.941192 13.801766
LeftArm -17.566268 37.204560 -93.989703
LeftForeArm 5.277850 -0.000000 27.124181
LeftHand -8.131950 0.000000 12.149915
LeftHandThumb1 -26.253704 0.000000 33.147579
RightShoulder 1.518758 -17.671039 -9.222016
RightArm 23.870926 -50.810830 58.580959
RightForeArm -31.242300 -0.000000 24.506633
RightHand -8.774302 -0.000000 -14.820135
RightHandThumb1 -24.326973 -0.000000 -32.862282
LeftUpLeg -79.241403 10.905014 -9.239261
LeftLeg 144.709529 -0.000000 -0.000000
LeftFoot -29.342373 28.310596 -9.158226
LeftToeBase 17.065147 -0.000000 -0.000000
RightUpLeg -90.511799 1.630546 4.085051
RightLeg 129.069237 -0.000000 -0.000000
RightFoot -3.650915 -29.029932 -12.874008
RightToeBase -0.167909 -0.000000 0.000000
2166
root 21.451159 6.646899 -11.295571 -232.492732 -26.250028 -185.180613
Spine 67.606107 6.608833 -1.314929
Head 21.839453 -8.537380 6.078331
LeftShoulder -2.359853 -10.982691 13.419058
LeftArm -16.646363 36.936013 -93.728489
LeftForeArm 5.260643 -0.000000 25.668065
LeftHand -7.940306 -0.000000 12.045543
LeftHandThumb1 -26.253704 0.000000 33.147579
RightShoulder 1.397562 -17.688811 -8.785239
RightArm 24.343208 -50.155356 58.280710
RightForeArm -31.242685 -0.000000 23.530131
RightHand -8.662026 0.000000 -14.512685
RightHandThumb1 -24.326973 -0.000000 -32.862282
LeftUpLeg -79.000368 10.745932 -8.818590
LeftLeg 144.587189 -0.000000 -0.000000
LeftFoot -29.867359 28.160826 -9.483334
LeftToeBase 17.310156 -0.000000 -0.000000
RightUpLeg -90.275034 1.740333 2.942935
RightLeg 130.191728 -0.000000 -0.000000
RightFoot -3.984705 -29.268083 -12.938311
RightToeBase -0.232740 -0.000000 0.000000
2167
root 21.466229 6.741811 -11.274844 -232.618131 -26.089329 -184.632375
Spine 67.796411 6.167254 -0.901988
Head 21.644612 -8.395948 6.397723
LeftShoulder -2.283818 -11.346987 13.082984
LeftArm -16.178052 37.083585 -93.834225
LeftForeArm 5.123387 -0.000000 24.205060
LeftHand -7.883437 -0.000000 12.270971
LeftHandThumb1 -26.253704 0.000000 33.147579
RightShoulder 1.370457 -17.560929 -8.410024
RightArm 24.643226 -49.662917 58.089973
RightForeArm -31.778297 -0.000000 22.599635
RightHand -8.723235 -0.000000 -14.397386
RightHandThumb1 -24.326973 -0.000000 -32.862282
LeftUpLeg -78.778650 10.617239 -8.344583
LeftLeg 144.468752 -0.000000 -0.000000
LeftFoot -30.247452 28.064190 -9.733946
LeftToeBase 17.317201 -0.000000 -0.000000
RightUpLeg -89.954044 1.851934 1.866308
RightLeg 131.287974 -0.000000 -0.000000
RightFoot -4.444699 -29.647846 -13.005311
RightToeBase 0.051943 -0.000000 -0.000000
